<svg xmlns="http://www.w3.org/2000/svg" xmlns:xlink="http://www.w3.org/1999/xlink" width="500" zoomAndPan="magnify" viewBox="0 0 375 374.999991" height="500" preserveAspectRatio="xMidYMid meet" version="1.0"><defs><clipPath id="5ed8efed21"><path d="M 88.390625 83.09375 L 286 83.09375 L 286 291.59375 L 88.390625 291.59375 Z M 88.390625 83.09375 " clip-rule="nonzero"/></clipPath></defs><rect x="-37.5" width="450" fill="#ffffff" y="-37.499999" height="449.999989" fill-opacity="1"/><rect x="-37.5" width="450" fill="#f2eddb" y="-37.499999" height="449.999989" fill-opacity="1"/><g clip-path="url(#5ed8efed21)"><path fill="#ff606a" d="M 153.800781 232.4375 C 161.265625 234.304688 168.730469 236.171875 176.195312 238.039062 C 166.863281 221.238281 155.667969 208.167969 142.605469 196.96875 C 131.410156 187.632812 120.214844 180.167969 107.152344 174.566406 C 109.019531 185.769531 112.75 195.101562 120.214844 204.4375 C 127.679688 215.636719 140.742188 224.96875 153.800781 232.4375 Z M 226.578125 120.429688 C 196.71875 112.964844 172.460938 122.296875 166.863281 129.765625 C 179.925781 137.230469 196.71875 139.097656 209.78125 135.363281 C 226.578125 133.496094 243.371094 126.03125 254.566406 114.828125 C 234.039062 101.761719 207.917969 96.160156 183.660156 98.027344 C 157.535156 101.761719 133.277344 112.964844 116.484375 131.632812 C 137.007812 150.296875 163.132812 159.632812 189.257812 161.5 C 219.113281 163.367188 248.96875 154.03125 273.226562 135.363281 L 282.554688 127.898438 L 284.421875 140.964844 C 286.289062 157.765625 284.421875 176.433594 278.824219 191.367188 C 271.359375 208.167969 262.03125 223.101562 247.101562 232.4375 C 232.175781 243.636719 217.246094 251.105469 198.585938 252.972656 C 200.453125 254.839844 200.453125 258.574219 202.320312 260.4375 C 215.378906 292.175781 226.578125 318.308594 275.09375 323.910156 C 278.824219 323.910156 282.554688 327.644531 280.691406 331.378906 C 280.691406 335.109375 276.957031 338.84375 273.226562 338.84375 C 215.378906 333.242188 202.320312 301.507812 187.390625 266.039062 C 185.523438 262.304688 185.523438 258.574219 183.660156 252.972656 C 170.597656 252.972656 159.402344 251.105469 148.203125 245.503906 C 131.410156 238.039062 118.347656 226.835938 107.152344 213.769531 C 97.824219 198.835938 92.222656 182.035156 90.359375 165.234375 L 88.492188 154.03125 L 99.6875 157.765625 C 118.347656 163.367188 137.007812 172.699219 151.9375 185.769531 C 166.863281 198.835938 179.925781 213.769531 189.257812 232.4375 C 189.257812 234.304688 191.121094 236.171875 192.988281 238.039062 C 194.855469 238.039062 194.855469 238.039062 196.71875 238.039062 C 211.648438 236.171875 226.578125 230.570312 237.773438 221.238281 C 250.835938 211.902344 258.296875 200.703125 263.894531 185.769531 C 269.496094 176.433594 271.359375 167.101562 271.359375 155.898438 C 245.238281 170.832031 217.246094 178.300781 189.257812 176.433594 C 157.535156 174.566406 125.8125 161.5 99.6875 139.097656 L 95.957031 133.496094 L 99.6875 127.898438 C 120.214844 103.628906 150.070312 86.828125 181.792969 83.09375 C 211.648438 81.226562 245.238281 88.695312 271.359375 107.363281 L 276.957031 112.964844 L 273.226562 118.5625 C 256.433594 137.230469 235.90625 148.433594 213.515625 150.296875 C 191.121094 154.03125 166.863281 150.296875 146.339844 137.230469 L 138.875 131.632812 C 157.535156 111.097656 206.050781 101.761719 226.578125 120.429688 Z M 226.578125 120.429688 " fill-opacity="1" fill-rule="nonzero"/></g></svg>