<svg xmlns="http://www.w3.org/2000/svg" xmlns:xlink="http://www.w3.org/1999/xlink" width="500" zoomAndPan="magnify" viewBox="0 0 375 374.999991" height="500" preserveAspectRatio="xMidYMid meet" version="1.0"><defs><g/><clipPath id="7f373f8f64"><path d="M 121.335938 91.195312 L 236.835938 91.195312 L 236.835938 212.695312 L 121.335938 212.695312 Z M 121.335938 91.195312 " clip-rule="nonzero"/></clipPath></defs><rect x="-37.5" width="450" fill="#ffffff" y="-37.499999" height="449.999989" fill-opacity="1"/><rect x="-37.5" width="450" fill="#ffffff" y="-37.499999" height="449.999989" fill-opacity="1"/><rect x="-37.5" width="450" fill="#f2eddb" y="-37.499999" height="449.999989" fill-opacity="1"/><g clip-path="url(#7f373f8f64)"><path fill="#ff606a" d="M 159.496094 178.347656 C 163.847656 179.4375 168.203125 180.527344 172.558594 181.617188 C 167.113281 171.8125 160.582031 164.1875 152.964844 157.648438 C 146.433594 152.203125 139.902344 147.84375 132.285156 144.578125 C 133.371094 151.113281 135.546875 156.558594 139.902344 162.007812 C 144.257812 168.542969 151.875 173.992188 159.496094 178.347656 Z M 201.945312 112.984375 C 184.53125 108.625 170.378906 114.074219 167.113281 118.429688 C 174.734375 122.789062 184.53125 123.878906 192.148438 121.699219 C 201.945312 120.609375 211.742188 116.253906 218.273438 109.714844 C 206.300781 102.089844 191.0625 98.820312 176.910156 99.910156 C 161.671875 102.089844 147.523438 108.625 137.726562 119.519531 C 149.699219 130.414062 164.9375 135.863281 180.175781 136.949219 C 197.589844 138.039062 215.007812 132.59375 229.15625 121.699219 L 234.601562 117.339844 L 235.6875 124.96875 C 236.777344 134.773438 235.6875 145.667969 232.421875 154.382812 C 228.070312 164.1875 222.625 172.902344 213.917969 178.347656 C 205.210938 184.886719 196.503906 189.242188 185.617188 190.332031 C 186.707031 191.421875 186.707031 193.601562 187.796875 194.691406 C 195.414062 213.210938 201.945312 228.460938 230.246094 231.730469 C 232.421875 231.730469 234.601562 233.910156 233.511719 236.085938 C 233.511719 238.265625 231.335938 240.445312 229.15625 240.445312 C 195.414062 237.175781 187.796875 218.65625 179.085938 197.957031 C 178 195.78125 178 193.601562 176.910156 190.332031 C 169.292969 190.332031 162.761719 189.242188 156.230469 185.976562 C 146.433594 181.617188 138.8125 175.082031 132.285156 167.453125 C 126.839844 158.738281 123.574219 148.933594 122.488281 139.128906 L 121.398438 132.59375 L 127.929688 134.773438 C 138.8125 138.039062 149.699219 143.488281 158.40625 151.113281 C 167.113281 158.738281 174.734375 167.453125 180.175781 178.347656 C 180.175781 179.4375 181.265625 180.527344 182.351562 181.617188 C 183.441406 181.617188 183.441406 181.617188 184.53125 181.617188 C 193.238281 180.527344 201.945312 177.257812 208.476562 171.8125 C 216.09375 166.367188 220.449219 159.828125 223.714844 151.113281 C 226.980469 145.667969 228.070312 140.21875 228.070312 133.683594 C 212.832031 142.398438 196.503906 146.753906 180.175781 145.667969 C 161.671875 144.578125 143.167969 136.949219 127.929688 123.878906 L 125.753906 120.609375 L 127.929688 117.339844 C 139.902344 103.179688 157.316406 93.375 175.820312 91.195312 C 193.238281 90.105469 212.832031 94.464844 228.070312 105.359375 L 231.335938 108.625 L 229.15625 111.894531 C 219.359375 122.789062 207.386719 129.324219 194.328125 130.414062 C 181.265625 132.59375 167.113281 130.414062 155.140625 122.789062 L 150.789062 119.519531 C 161.671875 107.535156 189.972656 102.089844 201.945312 112.984375 Z M 201.945312 112.984375 " fill-opacity="1" fill-rule="nonzero"/></g><g fill="#ff606a" fill-opacity="1"><g transform="translate(60.149943, 235.705338)"><g><path d="M 14.203125 0.40625 C 11.992188 0.40625 10.109375 -0.347656 8.546875 -1.859375 L 8.546875 5.359375 C 8.546875 6.390625 8.769531 7.03125 9.21875 7.28125 C 9.664062 7.539062 10.804688 7.671875 12.640625 7.671875 L 12.640625 9.890625 L 1.359375 9.890625 L 1.359375 7.671875 C 2.515625 7.671875 3.238281 7.550781 3.53125 7.3125 C 3.832031 7.082031 4.015625 6.832031 4.078125 6.5625 C 4.148438 6.289062 4.1875 5.953125 4.1875 5.546875 L 4.1875 -15.453125 C 4.1875 -16.421875 4.097656 -17.050781 3.921875 -17.34375 C 3.753906 -17.644531 3.296875 -17.796875 2.546875 -17.796875 L 1.109375 -17.796875 L 1.109375 -20.015625 C 2.441406 -20.015625 3.484375 -20.109375 4.234375 -20.296875 C 4.992188 -20.492188 5.535156 -20.632812 5.859375 -20.71875 C 6.179688 -20.8125 6.523438 -20.859375 6.890625 -20.859375 C 7.597656 -20.859375 8.0625 -20.648438 8.28125 -20.234375 C 8.507812 -19.828125 8.625 -19.175781 8.625 -18.28125 L 8.625 -18.21875 C 10.132812 -19.988281 12.191406 -20.875 14.796875 -20.875 C 17.398438 -20.875 19.5 -19.992188 21.09375 -18.234375 C 22.695312 -16.484375 23.5 -13.9375 23.5 -10.59375 C 23.5 -7.257812 22.664062 -4.59375 21 -2.59375 C 19.34375 -0.59375 17.078125 0.40625 14.203125 0.40625 Z M 8.4375 -10.015625 C 8.4375 -7.535156 8.914062 -5.582031 9.875 -4.15625 C 10.832031 -2.726562 12.113281 -2.015625 13.71875 -2.015625 C 15.300781 -2.015625 16.539062 -2.742188 17.4375 -4.203125 C 18.34375 -5.671875 18.796875 -7.625 18.796875 -10.0625 C 18.796875 -13.945312 17.851562 -16.515625 15.96875 -17.765625 C 15.300781 -18.222656 14.507812 -18.453125 13.59375 -18.453125 C 12.675781 -18.453125 11.898438 -18.238281 11.265625 -17.8125 C 10.628906 -17.382812 10.101562 -16.789062 9.6875 -16.03125 C 8.851562 -14.5 8.4375 -12.492188 8.4375 -10.015625 Z M 8.4375 -10.015625 "/></g></g></g><g fill="#ff606a" fill-opacity="1"><g transform="translate(90.737269, 235.705338)"><g><path d="M 20.65625 -9.3125 L 6.640625 -9.3125 C 6.640625 -7 7.1875 -5.207031 8.28125 -3.9375 C 9.382812 -2.675781 10.742188 -2.046875 12.359375 -2.046875 C 14.523438 -2.046875 16.082031 -2.9375 17.03125 -4.71875 L 20.03125 -4.75 C 19.71875 -3.300781 18.832031 -2.078125 17.375 -1.078125 C 15.914062 -0.0859375 13.945312 0.40625 11.46875 0.40625 C 8.988281 0.40625 6.847656 -0.359375 5.046875 -1.890625 C 2.890625 -3.742188 1.8125 -6.34375 1.8125 -9.6875 C 1.8125 -13.039062 2.671875 -15.742188 4.390625 -17.796875 C 6.109375 -19.847656 8.570312 -20.875 11.78125 -20.875 C 15.988281 -20.875 18.710938 -19.179688 19.953125 -15.796875 C 20.453125 -14.429688 20.703125 -13.144531 20.703125 -11.9375 C 20.703125 -10.726562 20.6875 -9.851562 20.65625 -9.3125 Z M 16 -12.34375 C 16 -16.457031 14.597656 -18.515625 11.796875 -18.515625 C 10.222656 -18.515625 8.992188 -17.898438 8.109375 -16.671875 C 7.222656 -15.453125 6.742188 -13.757812 6.671875 -11.59375 L 15.96875 -11.59375 C 15.988281 -11.84375 16 -12.09375 16 -12.34375 Z M 16 -12.34375 "/></g></g></g><g fill="#ff606a" fill-opacity="1"><g transform="translate(118.599655, 235.705338)"><g><path d="M 10.078125 0.40625 C 5.835938 0.40625 3.71875 -1.953125 3.71875 -6.671875 L 3.71875 -16.765625 C 3.71875 -17.285156 3.648438 -17.628906 3.515625 -17.796875 C 3.390625 -17.960938 3.117188 -18.046875 2.703125 -18.046875 L 1.046875 -18.046875 L 1.046875 -20.484375 L 1.796875 -20.484375 C 2.816406 -20.484375 3.566406 -20.804688 4.046875 -21.453125 C 4.523438 -22.097656 4.785156 -23.160156 4.828125 -24.640625 L 4.84375 -26.4375 L 8.078125 -26.4375 L 8.078125 -20.484375 L 14.28125 -20.484375 L 14.28125 -18.046875 L 8.078125 -18.046875 L 8.078125 -6.71875 C 8.078125 -4.21875 8.65625 -2.722656 9.8125 -2.234375 C 10.132812 -2.109375 10.457031 -2.046875 10.78125 -2.046875 C 12.195312 -2.046875 13.117188 -3.207031 13.546875 -5.53125 L 15.890625 -5.53125 C 15.753906 -2.769531 14.601562 -0.941406 12.4375 -0.046875 C 11.738281 0.253906 10.953125 0.40625 10.078125 0.40625 Z M 10.078125 0.40625 "/></g></g></g><g fill="#ff606a" fill-opacity="1"><g transform="translate(140.830503, 235.705338)"><g><path d="M 19.28125 -4.828125 C 19.28125 -3.222656 19.597656 -2.421875 20.234375 -2.421875 C 20.835938 -2.421875 21.28125 -2.625 21.5625 -3.03125 C 21.851562 -3.445312 22 -4.191406 22 -5.265625 L 24.109375 -5.265625 C 24.128906 -5.097656 24.140625 -4.820312 24.140625 -4.4375 C 24.140625 -3.226562 23.832031 -2.179688 23.21875 -1.296875 C 22.476562 -0.160156 21.300781 0.40625 19.6875 0.40625 C 18.632812 0.40625 17.738281 0.109375 17 -0.484375 C 16.257812 -1.078125 15.75 -1.859375 15.46875 -2.828125 C 13.519531 -0.671875 11.050781 0.40625 8.0625 0.40625 C 6.414062 0.40625 4.984375 -0.0703125 3.765625 -1.03125 C 2.546875 -2 1.9375 -3.34375 1.9375 -5.0625 C 1.9375 -8.050781 4.144531 -10.257812 8.5625 -11.6875 C 11.363281 -12.582031 13.039062 -13.203125 13.59375 -13.546875 C 14.144531 -13.890625 14.503906 -14.238281 14.671875 -14.59375 C 14.835938 -14.945312 14.921875 -15.347656 14.921875 -15.796875 C 14.921875 -16.585938 14.53125 -17.25 13.75 -17.78125 C 12.96875 -18.3125 11.953125 -18.578125 10.703125 -18.578125 C 9.453125 -18.578125 8.347656 -18.238281 7.390625 -17.5625 C 8.066406 -17.070312 8.40625 -16.4375 8.40625 -15.65625 C 8.40625 -14.875 8.144531 -14.242188 7.625 -13.765625 C 7.101562 -13.296875 6.472656 -13.0625 5.734375 -13.0625 C 5.003906 -13.0625 4.398438 -13.285156 3.921875 -13.734375 C 3.453125 -14.179688 3.21875 -14.800781 3.21875 -15.59375 C 3.21875 -17.164062 4.007812 -18.4375 5.59375 -19.40625 C 7.1875 -20.382812 9.117188 -20.875 11.390625 -20.875 C 15.453125 -20.875 17.9375 -19.554688 18.84375 -16.921875 C 19.132812 -16.046875 19.28125 -15.035156 19.28125 -13.890625 Z M 10.375 -9.859375 C 9.195312 -9.347656 8.3125 -8.691406 7.71875 -7.890625 C 7.125 -7.085938 6.828125 -6.210938 6.828125 -5.265625 C 6.828125 -4.328125 7.082031 -3.613281 7.59375 -3.125 C 8.101562 -2.644531 8.742188 -2.40625 9.515625 -2.40625 C 11.078125 -2.40625 12.367188 -2.953125 13.390625 -4.046875 C 14.410156 -5.140625 14.921875 -6.671875 14.921875 -8.640625 L 14.921875 -11.75 C 14.054688 -11.3125 13.144531 -10.910156 12.1875 -10.546875 C 11.226562 -10.179688 10.625 -9.953125 10.375 -9.859375 Z M 10.375 -9.859375 "/></g></g></g><g fill="#ff606a" fill-opacity="1"><g transform="translate(169.823235, 235.705338)"><g><path d="M 1.40625 -2.21875 C 2.582031 -2.21875 3.390625 -2.378906 3.828125 -2.703125 C 4.265625 -3.023438 4.484375 -3.582031 4.484375 -4.375 L 4.484375 -26.25 C 4.484375 -27.21875 4.398438 -27.847656 4.234375 -28.140625 C 4.066406 -28.441406 3.601562 -28.59375 2.84375 -28.59375 L 1.21875 -28.59375 L 1.21875 -30.8125 C 2.570312 -30.8125 3.628906 -30.910156 4.390625 -31.109375 C 5.160156 -31.304688 5.710938 -31.445312 6.046875 -31.53125 C 6.378906 -31.625 6.726562 -31.671875 7.09375 -31.671875 C 7.789062 -31.671875 8.253906 -31.46875 8.484375 -31.0625 C 8.722656 -30.65625 8.84375 -29.992188 8.84375 -29.078125 L 8.84375 -4.375 C 8.84375 -3.539062 9.019531 -2.972656 9.375 -2.671875 C 9.738281 -2.367188 10.570312 -2.21875 11.875 -2.21875 L 11.875 0 L 1.40625 0 Z M 1.40625 -2.21875 "/></g></g></g><g fill="#ff606a" fill-opacity="1"><g transform="translate(188.481381, 235.705338)"><g><path d="M 14.203125 0.40625 C 11.992188 0.40625 10.109375 -0.347656 8.546875 -1.859375 L 8.546875 5.359375 C 8.546875 6.390625 8.769531 7.03125 9.21875 7.28125 C 9.664062 7.539062 10.804688 7.671875 12.640625 7.671875 L 12.640625 9.890625 L 1.359375 9.890625 L 1.359375 7.671875 C 2.515625 7.671875 3.238281 7.550781 3.53125 7.3125 C 3.832031 7.082031 4.015625 6.832031 4.078125 6.5625 C 4.148438 6.289062 4.1875 5.953125 4.1875 5.546875 L 4.1875 -15.453125 C 4.1875 -16.421875 4.097656 -17.050781 3.921875 -17.34375 C 3.753906 -17.644531 3.296875 -17.796875 2.546875 -17.796875 L 1.109375 -17.796875 L 1.109375 -20.015625 C 2.441406 -20.015625 3.484375 -20.109375 4.234375 -20.296875 C 4.992188 -20.492188 5.535156 -20.632812 5.859375 -20.71875 C 6.179688 -20.8125 6.523438 -20.859375 6.890625 -20.859375 C 7.597656 -20.859375 8.0625 -20.648438 8.28125 -20.234375 C 8.507812 -19.828125 8.625 -19.175781 8.625 -18.28125 L 8.625 -18.21875 C 10.132812 -19.988281 12.191406 -20.875 14.796875 -20.875 C 17.398438 -20.875 19.5 -19.992188 21.09375 -18.234375 C 22.695312 -16.484375 23.5 -13.9375 23.5 -10.59375 C 23.5 -7.257812 22.664062 -4.59375 21 -2.59375 C 19.34375 -0.59375 17.078125 0.40625 14.203125 0.40625 Z M 8.4375 -10.015625 C 8.4375 -7.535156 8.914062 -5.582031 9.875 -4.15625 C 10.832031 -2.726562 12.113281 -2.015625 13.71875 -2.015625 C 15.300781 -2.015625 16.539062 -2.742188 17.4375 -4.203125 C 18.34375 -5.671875 18.796875 -7.625 18.796875 -10.0625 C 18.796875 -13.945312 17.851562 -16.515625 15.96875 -17.765625 C 15.300781 -18.222656 14.507812 -18.453125 13.59375 -18.453125 C 12.675781 -18.453125 11.898438 -18.238281 11.265625 -17.8125 C 10.628906 -17.382812 10.101562 -16.789062 9.6875 -16.03125 C 8.851562 -14.5 8.4375 -12.492188 8.4375 -10.015625 Z M 8.4375 -10.015625 "/></g></g></g><g fill="#ff606a" fill-opacity="1"><g transform="translate(219.068702, 235.705338)"><g><path d="M 1.8125 -10.34375 C 1.8125 -11.957031 2.0625 -13.445312 2.5625 -14.8125 C 3.070312 -16.175781 3.78125 -17.3125 4.6875 -18.21875 C 6.457031 -19.988281 8.820312 -20.875 11.78125 -20.875 C 14.75 -20.875 17.144531 -19.984375 18.96875 -18.203125 C 20.789062 -16.421875 21.703125 -13.890625 21.703125 -10.609375 C 21.703125 -7.328125 20.859375 -4.671875 19.171875 -2.640625 C 17.492188 -0.609375 15.03125 0.40625 11.78125 0.40625 C 8.519531 0.40625 6.039062 -0.578125 4.34375 -2.546875 C 2.65625 -4.523438 1.8125 -7.125 1.8125 -10.34375 Z M 11.78125 -2.015625 C 13.332031 -2.015625 14.597656 -2.726562 15.578125 -4.15625 C 16.554688 -5.582031 17.046875 -7.585938 17.046875 -10.171875 C 17.046875 -14.335938 15.992188 -16.9375 13.890625 -17.96875 C 13.242188 -18.289062 12.539062 -18.453125 11.78125 -18.453125 C 9.28125 -18.453125 7.65625 -16.945312 6.90625 -13.9375 C 6.632812 -12.894531 6.5 -11.679688 6.5 -10.296875 C 6.5 -7.628906 6.988281 -5.582031 7.96875 -4.15625 C 8.945312 -2.726562 10.21875 -2.015625 11.78125 -2.015625 Z M 11.78125 -2.015625 "/></g></g></g><g fill="#ff606a" fill-opacity="1"><g transform="translate(247.920136, 235.705338)"><g><path d="M 6.8125 -24.625 C 5.9375 -24.625 5.191406 -24.914062 4.578125 -25.5 C 3.960938 -26.082031 3.65625 -26.796875 3.65625 -27.640625 C 3.65625 -28.503906 3.960938 -29.234375 4.578125 -29.828125 C 5.203125 -30.429688 5.945312 -30.734375 6.8125 -30.734375 C 7.664062 -30.734375 8.398438 -30.429688 9.015625 -29.828125 C 9.640625 -29.234375 9.953125 -28.503906 9.953125 -27.640625 C 9.953125 -26.796875 9.644531 -26.082031 9.03125 -25.5 C 8.425781 -24.914062 7.6875 -24.625 6.8125 -24.625 Z M 1.65625 -2.21875 C 2.90625 -2.21875 3.6875 -2.332031 4 -2.5625 C 4.320312 -2.800781 4.515625 -3.054688 4.578125 -3.328125 C 4.648438 -3.597656 4.6875 -3.9375 4.6875 -4.34375 L 4.6875 -15.46875 C 4.6875 -16.4375 4.601562 -17.066406 4.4375 -17.359375 C 4.269531 -17.660156 3.8125 -17.8125 3.0625 -17.8125 L 1.609375 -17.8125 L 1.609375 -20.03125 C 2.929688 -20.03125 3.96875 -20.128906 4.71875 -20.328125 C 5.476562 -20.523438 6.007812 -20.664062 6.3125 -20.75 C 6.625 -20.832031 6.960938 -20.875 7.328125 -20.875 C 8.023438 -20.875 8.484375 -20.671875 8.703125 -20.265625 C 8.929688 -19.859375 9.046875 -19.203125 9.046875 -18.296875 L 9.046875 -4.34375 C 9.046875 -3.488281 9.179688 -2.957031 9.453125 -2.75 C 9.910156 -2.394531 10.78125 -2.21875 12.0625 -2.21875 L 12.0625 0 L 1.65625 0 Z M 1.65625 -2.21875 "/></g></g></g><g fill="#ff606a" fill-opacity="1"><g transform="translate(266.780129, 235.705338)"><g><path d="M 14.171875 -17.859375 C 11.960938 -17.859375 10.175781 -17.171875 8.8125 -15.796875 L 8.8125 -4.34375 C 8.8125 -3.507812 8.941406 -2.984375 9.203125 -2.765625 C 9.679688 -2.398438 10.570312 -2.21875 11.875 -2.21875 L 11.875 0 L 1.609375 0 L 1.609375 -2.21875 C 2.773438 -2.21875 3.503906 -2.332031 3.796875 -2.5625 C 4.085938 -2.800781 4.265625 -3.054688 4.328125 -3.328125 C 4.398438 -3.597656 4.4375 -3.9375 4.4375 -4.34375 L 4.4375 -15.34375 C 4.4375 -16.3125 4.351562 -16.941406 4.1875 -17.234375 C 4.019531 -17.535156 3.5625 -17.6875 2.8125 -17.6875 L 1.578125 -17.6875 L 1.578125 -19.90625 C 2.835938 -19.90625 3.828125 -20.003906 4.546875 -20.203125 C 5.273438 -20.398438 5.789062 -20.539062 6.09375 -20.625 C 6.394531 -20.71875 6.71875 -20.765625 7.0625 -20.765625 C 7.78125 -20.765625 8.25 -20.554688 8.46875 -20.140625 C 8.695312 -19.734375 8.8125 -19.078125 8.8125 -18.171875 C 10.25 -19.390625 11.914062 -20.210938 13.8125 -20.640625 C 14.445312 -20.785156 15.066406 -20.859375 15.671875 -20.859375 C 20.035156 -20.859375 22.21875 -17.972656 22.21875 -12.203125 L 22.21875 -4.375 C 22.21875 -3.488281 22.34375 -2.90625 22.59375 -2.625 C 22.851562 -2.351562 23.554688 -2.21875 24.703125 -2.21875 L 24.703125 0 L 15.140625 0 L 15.140625 -2.21875 C 16.367188 -2.21875 17.109375 -2.34375 17.359375 -2.59375 C 17.609375 -2.84375 17.753906 -3.101562 17.796875 -3.375 C 17.835938 -3.644531 17.859375 -3.976562 17.859375 -4.375 L 17.859375 -11.9375 C 17.859375 -13.8125 17.679688 -15.097656 17.328125 -15.796875 C 16.640625 -17.171875 15.585938 -17.859375 14.171875 -17.859375 Z M 14.171875 -17.859375 "/></g></g></g><g fill="#ff606a" fill-opacity="1"><g transform="translate(297.972992, 235.705338)"><g><path d="M 10.078125 0.40625 C 5.835938 0.40625 3.71875 -1.953125 3.71875 -6.671875 L 3.71875 -16.765625 C 3.71875 -17.285156 3.648438 -17.628906 3.515625 -17.796875 C 3.390625 -17.960938 3.117188 -18.046875 2.703125 -18.046875 L 1.046875 -18.046875 L 1.046875 -20.484375 L 1.796875 -20.484375 C 2.816406 -20.484375 3.566406 -20.804688 4.046875 -21.453125 C 4.523438 -22.097656 4.785156 -23.160156 4.828125 -24.640625 L 4.84375 -26.4375 L 8.078125 -26.4375 L 8.078125 -20.484375 L 14.28125 -20.484375 L 14.28125 -18.046875 L 8.078125 -18.046875 L 8.078125 -6.71875 C 8.078125 -4.21875 8.65625 -2.722656 9.8125 -2.234375 C 10.132812 -2.109375 10.457031 -2.046875 10.78125 -2.046875 C 12.195312 -2.046875 13.117188 -3.207031 13.546875 -5.53125 L 15.890625 -5.53125 C 15.753906 -2.769531 14.601562 -0.941406 12.4375 -0.046875 C 11.738281 0.253906 10.953125 0.40625 10.078125 0.40625 Z M 10.078125 0.40625 "/></g></g></g><g fill="#ff606a" fill-opacity="1"><g transform="translate(95.195798, 278.47899)"><g><path d="M 1.234375 -1.28125 C 1.910156 -1.28125 2.332031 -1.347656 2.5 -1.484375 C 2.675781 -1.628906 2.78125 -1.773438 2.8125 -1.921875 C 2.851562 -2.078125 2.875 -2.273438 2.875 -2.515625 L 2.875 -9.703125 C 2.875 -10.003906 2.835938 -10.203125 2.765625 -10.296875 C 2.691406 -10.398438 2.535156 -10.453125 2.296875 -10.453125 L 0.96875 -10.453125 L 0.96875 -11.859375 L 2.875 -11.859375 L 2.875 -13.03125 C 2.875 -14.84375 3.304688 -16.28125 4.171875 -17.34375 C 5.046875 -18.414062 6.207031 -18.953125 7.65625 -18.953125 C 8.644531 -18.953125 9.429688 -18.648438 10.015625 -18.046875 C 10.609375 -17.441406 10.90625 -16.742188 10.90625 -15.953125 C 10.90625 -15.160156 10.613281 -14.632812 10.03125 -14.375 C 9.84375 -14.289062 9.640625 -14.25 9.421875 -14.25 C 9.015625 -14.25 8.65625 -14.390625 8.34375 -14.671875 C 8.039062 -14.953125 7.890625 -15.265625 7.890625 -15.609375 C 7.890625 -16.253906 8.175781 -16.675781 8.75 -16.875 C 8.632812 -17.144531 8.46875 -17.347656 8.25 -17.484375 C 8.03125 -17.617188 7.832031 -17.6875 7.65625 -17.6875 C 7.476562 -17.6875 7.300781 -17.671875 7.125 -17.640625 C 6.957031 -17.617188 6.789062 -17.554688 6.625 -17.453125 C 5.820312 -16.972656 5.421875 -15.550781 5.421875 -13.1875 L 5.421875 -11.859375 L 8.953125 -11.859375 L 8.953125 -10.453125 L 5.421875 -10.453125 L 5.421875 -2.625 C 5.421875 -2.03125 5.554688 -1.65625 5.828125 -1.5 C 6.097656 -1.351562 6.785156 -1.28125 7.890625 -1.28125 L 7.890625 0 L 1.234375 0 Z M 1.234375 -1.28125 "/></g></g></g><g fill="#ff606a" fill-opacity="1"><g transform="translate(107.072751, 278.47899)"><g><path d="M 0.8125 -1.28125 C 1.5 -1.28125 1.96875 -1.375 2.21875 -1.5625 C 2.46875 -1.75 2.59375 -2.070312 2.59375 -2.53125 L 2.59375 -15.203125 C 2.59375 -15.765625 2.539062 -16.128906 2.4375 -16.296875 C 2.34375 -16.472656 2.082031 -16.5625 1.65625 -16.5625 L 0.703125 -16.5625 L 0.703125 -17.84375 C 1.492188 -17.84375 2.109375 -17.898438 2.546875 -18.015625 C 2.992188 -18.128906 3.3125 -18.210938 3.5 -18.265625 C 3.695312 -18.316406 3.898438 -18.34375 4.109375 -18.34375 C 4.515625 -18.34375 4.785156 -18.222656 4.921875 -17.984375 C 5.054688 -17.753906 5.125 -17.375 5.125 -16.84375 L 5.125 -2.53125 C 5.125 -2.050781 5.226562 -1.722656 5.4375 -1.546875 C 5.644531 -1.367188 6.125 -1.28125 6.875 -1.28125 L 6.875 0 L 0.8125 0 Z M 0.8125 -1.28125 "/></g></g></g><g fill="#ff606a" fill-opacity="1"><g transform="translate(117.137254, 278.47899)"><g><path d="M 1.046875 -5.984375 C 1.046875 -6.921875 1.191406 -7.785156 1.484375 -8.578125 C 1.785156 -9.367188 2.195312 -10.023438 2.71875 -10.546875 C 3.738281 -11.578125 5.101562 -12.09375 6.8125 -12.09375 C 8.539062 -12.09375 9.929688 -11.578125 10.984375 -10.546875 C 12.046875 -9.515625 12.578125 -8.046875 12.578125 -6.140625 C 12.578125 -4.242188 12.085938 -2.707031 11.109375 -1.53125 C 10.140625 -0.351562 8.707031 0.234375 6.8125 0.234375 C 4.925781 0.234375 3.492188 -0.332031 2.515625 -1.46875 C 1.535156 -2.613281 1.046875 -4.117188 1.046875 -5.984375 Z M 6.8125 -1.171875 C 7.71875 -1.171875 8.453125 -1.582031 9.015625 -2.40625 C 9.585938 -3.238281 9.875 -4.398438 9.875 -5.890625 C 9.875 -8.304688 9.265625 -9.8125 8.046875 -10.40625 C 7.671875 -10.59375 7.257812 -10.6875 6.8125 -10.6875 C 5.375 -10.6875 4.4375 -9.8125 4 -8.0625 C 3.84375 -7.46875 3.765625 -6.769531 3.765625 -5.96875 C 3.765625 -4.425781 4.046875 -3.238281 4.609375 -2.40625 C 5.179688 -1.582031 5.914062 -1.171875 6.8125 -1.171875 Z M 6.8125 -1.171875 "/></g></g></g><g fill="#ff606a" fill-opacity="1"><g transform="translate(133.106835, 278.47899)"><g><path d="M 0.953125 -1.28125 C 1.628906 -1.28125 2.050781 -1.347656 2.21875 -1.484375 C 2.394531 -1.628906 2.5 -1.773438 2.53125 -1.921875 C 2.5625 -2.078125 2.578125 -2.273438 2.578125 -2.515625 L 2.578125 -8.953125 C 2.578125 -9.515625 2.53125 -9.878906 2.4375 -10.046875 C 2.34375 -10.222656 2.082031 -10.3125 1.65625 -10.3125 L 0.9375 -10.3125 L 0.9375 -11.609375 C 1.675781 -11.609375 2.25 -11.660156 2.65625 -11.765625 C 3.070312 -11.878906 3.363281 -11.960938 3.53125 -12.015625 C 3.707031 -12.066406 3.898438 -12.09375 4.109375 -12.09375 C 4.503906 -12.09375 4.769531 -11.972656 4.90625 -11.734375 C 5.039062 -11.503906 5.109375 -11.125 5.109375 -10.59375 L 5.109375 -10.359375 C 5.773438 -11.148438 6.535156 -11.679688 7.390625 -11.953125 C 7.691406 -12.046875 7.992188 -12.09375 8.296875 -12.09375 C 8.890625 -12.09375 9.347656 -11.925781 9.671875 -11.59375 C 9.992188 -11.257812 10.15625 -10.84375 10.15625 -10.34375 C 10.15625 -9.851562 10 -9.453125 9.6875 -9.140625 C 9.375 -8.828125 8.992188 -8.671875 8.546875 -8.671875 C 8.109375 -8.671875 7.75 -8.828125 7.46875 -9.140625 C 7.1875 -9.453125 7.0625 -9.84375 7.09375 -10.3125 C 6.769531 -10.269531 6.425781 -10.125 6.0625 -9.875 C 5.695312 -9.632812 5.378906 -9.300781 5.109375 -8.875 L 5.109375 -2.625 C 5.109375 -2.320312 5.132812 -2.082031 5.1875 -1.90625 C 5.238281 -1.738281 5.375 -1.59375 5.59375 -1.46875 C 5.820312 -1.34375 6.492188 -1.28125 7.609375 -1.28125 L 7.609375 0 L 0.953125 0 Z M 0.953125 -1.28125 "/></g></g></g><g fill="#ff606a" fill-opacity="1"><g transform="translate(145.942632, 278.47899)"><g><path d="M 11.171875 -2.796875 C 11.171875 -1.867188 11.351562 -1.40625 11.71875 -1.40625 C 12.070312 -1.40625 12.328125 -1.519531 12.484375 -1.75 C 12.648438 -1.988281 12.734375 -2.421875 12.734375 -3.046875 L 13.96875 -3.046875 C 13.96875 -2.953125 13.96875 -2.796875 13.96875 -2.578125 C 13.96875 -1.867188 13.796875 -1.257812 13.453125 -0.75 C 13.023438 -0.09375 12.34375 0.234375 11.40625 0.234375 C 10.789062 0.234375 10.269531 0.0625 9.84375 -0.28125 C 9.414062 -0.625 9.117188 -1.078125 8.953125 -1.640625 C 7.828125 -0.390625 6.398438 0.234375 4.671875 0.234375 C 3.710938 0.234375 2.878906 -0.0390625 2.171875 -0.59375 C 1.472656 -1.15625 1.125 -1.9375 1.125 -2.9375 C 1.125 -4.664062 2.398438 -5.941406 4.953125 -6.765625 C 6.578125 -7.285156 7.546875 -7.644531 7.859375 -7.84375 C 8.179688 -8.039062 8.390625 -8.242188 8.484375 -8.453125 C 8.585938 -8.660156 8.640625 -8.890625 8.640625 -9.140625 C 8.640625 -9.609375 8.410156 -9.992188 7.953125 -10.296875 C 7.503906 -10.609375 6.914062 -10.765625 6.1875 -10.765625 C 5.46875 -10.765625 4.832031 -10.566406 4.28125 -10.171875 C 4.664062 -9.890625 4.859375 -9.519531 4.859375 -9.0625 C 4.859375 -8.613281 4.707031 -8.25 4.40625 -7.96875 C 4.113281 -7.695312 3.753906 -7.5625 3.328125 -7.5625 C 2.898438 -7.5625 2.546875 -7.691406 2.265625 -7.953125 C 1.992188 -8.210938 1.859375 -8.570312 1.859375 -9.03125 C 1.859375 -9.9375 2.316406 -10.671875 3.234375 -11.234375 C 4.160156 -11.804688 5.28125 -12.09375 6.59375 -12.09375 C 8.945312 -12.09375 10.382812 -11.328125 10.90625 -9.796875 C 11.082031 -9.296875 11.171875 -8.710938 11.171875 -8.046875 Z M 6.015625 -5.703125 C 5.328125 -5.410156 4.8125 -5.03125 4.46875 -4.5625 C 4.125 -4.101562 3.953125 -3.597656 3.953125 -3.046875 C 3.953125 -2.503906 4.097656 -2.09375 4.390625 -1.8125 C 4.691406 -1.53125 5.066406 -1.390625 5.515625 -1.390625 C 6.410156 -1.390625 7.15625 -1.707031 7.75 -2.34375 C 8.34375 -2.976562 8.640625 -3.863281 8.640625 -5 L 8.640625 -6.8125 C 8.140625 -6.550781 7.609375 -6.316406 7.046875 -6.109375 C 6.492188 -5.898438 6.148438 -5.765625 6.015625 -5.703125 Z M 6.015625 -5.703125 "/></g></g></g><g fill="#ff606a" fill-opacity="1"><g transform="translate(161.994067, 278.47899)"><g/></g></g><g fill="#ff606a" fill-opacity="1"><g transform="translate(172.327517, 278.47899)"><g><path d="M 11.25 -1.4375 C 10.019531 -0.320312 8.5625 0.234375 6.875 0.234375 C 5.1875 0.234375 3.828125 -0.226562 2.796875 -1.15625 C 1.773438 -2.09375 1.265625 -3.3125 1.265625 -4.8125 C 1.265625 -5.8125 1.632812 -6.753906 2.375 -7.640625 C 3.125 -8.535156 4.113281 -9.222656 5.34375 -9.703125 C 4.570312 -10.960938 4.109375 -11.875 3.953125 -12.4375 C 3.796875 -13 3.71875 -13.503906 3.71875 -13.953125 C 3.71875 -14.972656 4.09375 -15.863281 4.84375 -16.625 C 5.59375 -17.394531 6.585938 -17.78125 7.828125 -17.78125 C 9.554688 -17.78125 10.796875 -17.238281 11.546875 -16.15625 C 11.847656 -15.726562 12 -15.226562 12 -14.65625 C 12 -12.894531 10.753906 -11.179688 8.265625 -9.515625 C 9.410156 -7.691406 10.628906 -5.941406 11.921875 -4.265625 C 12.671875 -5.367188 13.226562 -6.59375 13.59375 -7.9375 C 13.644531 -8.09375 13.671875 -8.273438 13.671875 -8.484375 C 13.671875 -8.703125 13.546875 -8.921875 13.296875 -9.140625 C 13.054688 -9.367188 12.609375 -9.5 11.953125 -9.53125 L 11.875 -10.671875 L 17.921875 -10.671875 L 18 -9.53125 C 16.9375 -9.445312 16.171875 -9.066406 15.703125 -8.390625 C 15.546875 -8.179688 15.160156 -7.472656 14.546875 -6.265625 C 13.941406 -5.054688 13.351562 -4.039062 12.78125 -3.21875 C 13.675781 -2.175781 14.410156 -1.519531 14.984375 -1.25 C 15.234375 -1.132812 15.503906 -1.078125 15.796875 -1.078125 C 16.421875 -1.078125 16.890625 -1.285156 17.203125 -1.703125 C 16.847656 -1.765625 16.566406 -1.925781 16.359375 -2.1875 C 16.148438 -2.445312 16.046875 -2.773438 16.046875 -3.171875 C 16.046875 -3.566406 16.210938 -3.921875 16.546875 -4.234375 C 16.878906 -4.546875 17.210938 -4.703125 17.546875 -4.703125 C 17.878906 -4.703125 18.140625 -4.65625 18.328125 -4.5625 C 18.910156 -4.289062 19.203125 -3.847656 19.203125 -3.234375 C 19.203125 -2.128906 18.835938 -1.273438 18.109375 -0.671875 C 17.378906 -0.0664062 16.535156 0.234375 15.578125 0.234375 C 13.847656 0.234375 12.40625 -0.320312 11.25 -1.4375 Z M 7.546875 -10.703125 C 8.335938 -11.335938 8.898438 -11.925781 9.234375 -12.46875 C 9.566406 -13.019531 9.734375 -13.640625 9.734375 -14.328125 C 9.734375 -14.992188 9.53125 -15.53125 9.125 -15.9375 C 8.71875 -16.34375 8.25 -16.546875 7.71875 -16.546875 C 7.164062 -16.546875 6.757812 -16.332031 6.5 -15.90625 C 6.25 -15.488281 6.125 -14.96875 6.125 -14.34375 C 6.125 -13.726562 6.304688 -13.0625 6.671875 -12.34375 C 7.035156 -11.625 7.328125 -11.078125 7.546875 -10.703125 Z M 6.015625 -8.578125 C 4.648438 -7.734375 3.96875 -6.539062 3.96875 -5 C 3.96875 -3.914062 4.289062 -3.039062 4.9375 -2.375 C 5.582031 -1.71875 6.410156 -1.390625 7.421875 -1.390625 C 8.429688 -1.390625 9.394531 -1.753906 10.3125 -2.484375 C 8.851562 -4.304688 7.421875 -6.335938 6.015625 -8.578125 Z M 6.015625 -8.578125 "/></g></g></g><g fill="#ff606a" fill-opacity="1"><g transform="translate(194.260643, 278.47899)"><g/></g></g><g fill="#ff606a" fill-opacity="1"><g transform="translate(204.594093, 278.47899)"><g><path d="M 1.234375 -1.28125 C 1.910156 -1.28125 2.332031 -1.347656 2.5 -1.484375 C 2.675781 -1.628906 2.78125 -1.773438 2.8125 -1.921875 C 2.851562 -2.078125 2.875 -2.273438 2.875 -2.515625 L 2.875 -9.703125 C 2.875 -10.003906 2.835938 -10.203125 2.765625 -10.296875 C 2.691406 -10.398438 2.535156 -10.453125 2.296875 -10.453125 L 0.96875 -10.453125 L 0.96875 -11.859375 L 2.875 -11.859375 L 2.875 -13.03125 C 2.875 -14.84375 3.304688 -16.28125 4.171875 -17.34375 C 5.046875 -18.414062 6.207031 -18.953125 7.65625 -18.953125 C 8.644531 -18.953125 9.429688 -18.648438 10.015625 -18.046875 C 10.609375 -17.441406 10.90625 -16.742188 10.90625 -15.953125 C 10.90625 -15.160156 10.613281 -14.632812 10.03125 -14.375 C 9.84375 -14.289062 9.640625 -14.25 9.421875 -14.25 C 9.015625 -14.25 8.65625 -14.390625 8.34375 -14.671875 C 8.039062 -14.953125 7.890625 -15.265625 7.890625 -15.609375 C 7.890625 -16.253906 8.175781 -16.675781 8.75 -16.875 C 8.632812 -17.144531 8.46875 -17.347656 8.25 -17.484375 C 8.03125 -17.617188 7.832031 -17.6875 7.65625 -17.6875 C 7.476562 -17.6875 7.300781 -17.671875 7.125 -17.640625 C 6.957031 -17.617188 6.789062 -17.554688 6.625 -17.453125 C 5.820312 -16.972656 5.421875 -15.550781 5.421875 -13.1875 L 5.421875 -11.859375 L 8.953125 -11.859375 L 8.953125 -10.453125 L 5.421875 -10.453125 L 5.421875 -2.625 C 5.421875 -2.03125 5.554688 -1.65625 5.828125 -1.5 C 6.097656 -1.351562 6.785156 -1.28125 7.890625 -1.28125 L 7.890625 0 L 1.234375 0 Z M 1.234375 -1.28125 "/></g></g></g><g fill="#ff606a" fill-opacity="1"><g transform="translate(216.471049, 278.47899)"><g><path d="M 11.171875 -2.796875 C 11.171875 -1.867188 11.351562 -1.40625 11.71875 -1.40625 C 12.070312 -1.40625 12.328125 -1.519531 12.484375 -1.75 C 12.648438 -1.988281 12.734375 -2.421875 12.734375 -3.046875 L 13.96875 -3.046875 C 13.96875 -2.953125 13.96875 -2.796875 13.96875 -2.578125 C 13.96875 -1.867188 13.796875 -1.257812 13.453125 -0.75 C 13.023438 -0.09375 12.34375 0.234375 11.40625 0.234375 C 10.789062 0.234375 10.269531 0.0625 9.84375 -0.28125 C 9.414062 -0.625 9.117188 -1.078125 8.953125 -1.640625 C 7.828125 -0.390625 6.398438 0.234375 4.671875 0.234375 C 3.710938 0.234375 2.878906 -0.0390625 2.171875 -0.59375 C 1.472656 -1.15625 1.125 -1.9375 1.125 -2.9375 C 1.125 -4.664062 2.398438 -5.941406 4.953125 -6.765625 C 6.578125 -7.285156 7.546875 -7.644531 7.859375 -7.84375 C 8.179688 -8.039062 8.390625 -8.242188 8.484375 -8.453125 C 8.585938 -8.660156 8.640625 -8.890625 8.640625 -9.140625 C 8.640625 -9.609375 8.410156 -9.992188 7.953125 -10.296875 C 7.503906 -10.609375 6.914062 -10.765625 6.1875 -10.765625 C 5.46875 -10.765625 4.832031 -10.566406 4.28125 -10.171875 C 4.664062 -9.890625 4.859375 -9.519531 4.859375 -9.0625 C 4.859375 -8.613281 4.707031 -8.25 4.40625 -7.96875 C 4.113281 -7.695312 3.753906 -7.5625 3.328125 -7.5625 C 2.898438 -7.5625 2.546875 -7.691406 2.265625 -7.953125 C 1.992188 -8.210938 1.859375 -8.570312 1.859375 -9.03125 C 1.859375 -9.9375 2.316406 -10.671875 3.234375 -11.234375 C 4.160156 -11.804688 5.28125 -12.09375 6.59375 -12.09375 C 8.945312 -12.09375 10.382812 -11.328125 10.90625 -9.796875 C 11.082031 -9.296875 11.171875 -8.710938 11.171875 -8.046875 Z M 6.015625 -5.703125 C 5.328125 -5.410156 4.8125 -5.03125 4.46875 -4.5625 C 4.125 -4.101562 3.953125 -3.597656 3.953125 -3.046875 C 3.953125 -2.503906 4.097656 -2.09375 4.390625 -1.8125 C 4.691406 -1.53125 5.066406 -1.390625 5.515625 -1.390625 C 6.410156 -1.390625 7.15625 -1.707031 7.75 -2.34375 C 8.34375 -2.976562 8.640625 -3.863281 8.640625 -5 L 8.640625 -6.8125 C 8.140625 -6.550781 7.609375 -6.316406 7.046875 -6.109375 C 6.492188 -5.898438 6.148438 -5.765625 6.015625 -5.703125 Z M 6.015625 -5.703125 "/></g></g></g><g fill="#ff606a" fill-opacity="1"><g transform="translate(232.522484, 278.47899)"><g><path d="M 9.625 -1.921875 C 8.644531 -0.484375 7.34375 0.234375 5.71875 0.234375 C 4.539062 0.234375 3.625 -0.125 2.96875 -0.84375 C 2.3125 -1.570312 1.984375 -2.660156 1.984375 -4.109375 L 1.984375 -8.953125 C 1.984375 -9.515625 1.9375 -9.878906 1.84375 -10.046875 C 1.75 -10.222656 1.484375 -10.3125 1.046875 -10.3125 L 0.75 -10.3125 L 0.75 -11.609375 C 1.46875 -11.609375 1.988281 -11.660156 2.3125 -11.765625 C 2.632812 -11.878906 2.863281 -11.960938 3 -12.015625 C 3.144531 -12.066406 3.316406 -12.09375 3.515625 -12.09375 C 3.910156 -12.09375 4.175781 -11.96875 4.3125 -11.71875 C 4.445312 -11.476562 4.515625 -11.085938 4.515625 -10.546875 L 4.515625 -4.015625 C 4.515625 -3.160156 4.601562 -2.578125 4.78125 -2.265625 C 5.125 -1.671875 5.710938 -1.375 6.546875 -1.375 C 7.109375 -1.375 7.660156 -1.59375 8.203125 -2.03125 C 8.753906 -2.476562 9.144531 -3 9.375 -3.59375 L 9.375 -8.953125 C 9.351562 -9.535156 9.296875 -9.90625 9.203125 -10.0625 C 9.109375 -10.226562 8.847656 -10.3125 8.421875 -10.3125 L 7.75 -10.3125 L 7.75 -11.609375 C 8.488281 -11.609375 9.054688 -11.660156 9.453125 -11.765625 C 9.859375 -11.878906 10.144531 -11.960938 10.3125 -12.015625 C 10.488281 -12.066406 10.679688 -12.09375 10.890625 -12.09375 C 11.285156 -12.09375 11.550781 -11.972656 11.6875 -11.734375 C 11.820312 -11.503906 11.890625 -11.125 11.890625 -10.59375 L 11.890625 -3.109375 C 11.890625 -2.359375 11.925781 -1.890625 12 -1.703125 C 12.125 -1.359375 12.4375 -1.1875 12.9375 -1.1875 C 13.195312 -1.1875 13.421875 -1.234375 13.609375 -1.328125 L 13.609375 -0.1875 C 13.234375 0.09375 12.722656 0.234375 12.078125 0.234375 C 10.722656 0.234375 9.90625 -0.484375 9.625 -1.921875 Z M 9.625 -1.921875 "/></g></g></g><g fill="#ff606a" fill-opacity="1"><g transform="translate(248.784397, 278.47899)"><g><path d="M 8.203125 -10.34375 C 6.929688 -10.34375 5.894531 -9.941406 5.09375 -9.140625 L 5.09375 -2.515625 C 5.09375 -2.035156 5.171875 -1.734375 5.328125 -1.609375 C 5.609375 -1.390625 6.125 -1.28125 6.875 -1.28125 L 6.875 0 L 0.9375 0 L 0.9375 -1.28125 C 1.601562 -1.28125 2.019531 -1.347656 2.1875 -1.484375 C 2.363281 -1.628906 2.472656 -1.773438 2.515625 -1.921875 C 2.554688 -2.078125 2.578125 -2.273438 2.578125 -2.515625 L 2.578125 -8.890625 C 2.578125 -9.453125 2.523438 -9.816406 2.421875 -9.984375 C 2.328125 -10.160156 2.0625 -10.25 1.625 -10.25 L 0.90625 -10.25 L 0.90625 -11.53125 C 1.644531 -11.53125 2.222656 -11.585938 2.640625 -11.703125 C 3.054688 -11.816406 3.351562 -11.894531 3.53125 -11.9375 C 3.707031 -11.988281 3.894531 -12.015625 4.09375 -12.015625 C 4.507812 -12.015625 4.78125 -11.894531 4.90625 -11.65625 C 5.03125 -11.425781 5.09375 -11.050781 5.09375 -10.53125 C 5.925781 -11.226562 6.894531 -11.703125 8 -11.953125 C 8.363281 -12.035156 8.722656 -12.078125 9.078125 -12.078125 C 11.597656 -12.078125 12.859375 -10.40625 12.859375 -7.0625 L 12.859375 -2.53125 C 12.859375 -2.019531 12.929688 -1.679688 13.078125 -1.515625 C 13.234375 -1.359375 13.640625 -1.28125 14.296875 -1.28125 L 14.296875 0 L 8.765625 0 L 8.765625 -1.28125 C 9.484375 -1.28125 9.910156 -1.351562 10.046875 -1.5 C 10.191406 -1.644531 10.273438 -1.796875 10.296875 -1.953125 C 10.328125 -2.109375 10.34375 -2.300781 10.34375 -2.53125 L 10.34375 -6.90625 C 10.34375 -7.988281 10.238281 -8.734375 10.03125 -9.140625 C 9.632812 -9.941406 9.023438 -10.34375 8.203125 -10.34375 Z M 8.203125 -10.34375 "/></g></g></g><g fill="#ff606a" fill-opacity="1"><g transform="translate(266.110384, 278.47899)"><g><path d="M 11.171875 -2.796875 C 11.171875 -1.867188 11.351562 -1.40625 11.71875 -1.40625 C 12.070312 -1.40625 12.328125 -1.519531 12.484375 -1.75 C 12.648438 -1.988281 12.734375 -2.421875 12.734375 -3.046875 L 13.96875 -3.046875 C 13.96875 -2.953125 13.96875 -2.796875 13.96875 -2.578125 C 13.96875 -1.867188 13.796875 -1.257812 13.453125 -0.75 C 13.023438 -0.09375 12.34375 0.234375 11.40625 0.234375 C 10.789062 0.234375 10.269531 0.0625 9.84375 -0.28125 C 9.414062 -0.625 9.117188 -1.078125 8.953125 -1.640625 C 7.828125 -0.390625 6.398438 0.234375 4.671875 0.234375 C 3.710938 0.234375 2.878906 -0.0390625 2.171875 -0.59375 C 1.472656 -1.15625 1.125 -1.9375 1.125 -2.9375 C 1.125 -4.664062 2.398438 -5.941406 4.953125 -6.765625 C 6.578125 -7.285156 7.546875 -7.644531 7.859375 -7.84375 C 8.179688 -8.039062 8.390625 -8.242188 8.484375 -8.453125 C 8.585938 -8.660156 8.640625 -8.890625 8.640625 -9.140625 C 8.640625 -9.609375 8.410156 -9.992188 7.953125 -10.296875 C 7.503906 -10.609375 6.914062 -10.765625 6.1875 -10.765625 C 5.46875 -10.765625 4.832031 -10.566406 4.28125 -10.171875 C 4.664062 -9.890625 4.859375 -9.519531 4.859375 -9.0625 C 4.859375 -8.613281 4.707031 -8.25 4.40625 -7.96875 C 4.113281 -7.695312 3.753906 -7.5625 3.328125 -7.5625 C 2.898438 -7.5625 2.546875 -7.691406 2.265625 -7.953125 C 1.992188 -8.210938 1.859375 -8.570312 1.859375 -9.03125 C 1.859375 -9.9375 2.316406 -10.671875 3.234375 -11.234375 C 4.160156 -11.804688 5.28125 -12.09375 6.59375 -12.09375 C 8.945312 -12.09375 10.382812 -11.328125 10.90625 -9.796875 C 11.082031 -9.296875 11.171875 -8.710938 11.171875 -8.046875 Z M 6.015625 -5.703125 C 5.328125 -5.410156 4.8125 -5.03125 4.46875 -4.5625 C 4.125 -4.101562 3.953125 -3.597656 3.953125 -3.046875 C 3.953125 -2.503906 4.097656 -2.09375 4.390625 -1.8125 C 4.691406 -1.53125 5.066406 -1.390625 5.515625 -1.390625 C 6.410156 -1.390625 7.15625 -1.707031 7.75 -2.34375 C 8.34375 -2.976562 8.640625 -3.863281 8.640625 -5 L 8.640625 -6.8125 C 8.140625 -6.550781 7.609375 -6.316406 7.046875 -6.109375 C 6.492188 -5.898438 6.148438 -5.765625 6.015625 -5.703125 Z M 6.015625 -5.703125 "/></g></g></g></svg>